<svg width="372" height="153" viewBox="0 0 372 153" xmlns="http://www.w3.org/2000/svg"><title>Slice 1</title><g transform="translate(3 3)" fill="none" fill-rule="evenodd"><path d="M75 147H42L41 0l36 1.5L75 147z" stroke="#000" stroke-width="4" fill="#2E94E8"/><path d="M99 147H78L77 16l24-.5L99 147z" stroke="#000" stroke-width="4" fill="#BA2727"/><path d="M22 147H1L0 7l24-.5L22 147z" stroke="#000" stroke-width="4" fill="#EAEAEA"/><path d="M39 147H25L24 16l17-.5L39 147z" stroke="#000" stroke-width="4" fill="#9EBA25"/><path d="M367 113.5v33l-146.75 1 1.375-36 145.375 2z" stroke="#000" stroke-width="4" fill="#549130"/><path d="M359.2 89.667l-.452 20.995-131.116-1.82.08-24.004 131.488 4.83z" stroke="#000" stroke-width="4" fill="#2A5593"/><path d="M220 86.75v-14l130.875-1 .563 17-131.438-2z" stroke="#000" stroke-width="4" fill="#B78D25"/><path d="M211.153 143.67L190.32 147 178.86 43.88l23.955-2.264 8.34 102.054z" stroke="#000" stroke-width="4" fill="#F78100"/><path d="M177 147h-33L143 0l36 1.5-2 145.5z" stroke="#000" stroke-width="4" fill="#2A5593"/><path d="M124 147h-21L102 7l24-.5-2 140.5z" stroke="#000" stroke-width="4" fill="#BA2727"/><path d="M141 147h-14l-1-131 17-.5-2 131.5z" stroke="#000" stroke-width="4" fill="#9EBA25"/><text fill="#000" transform="rotate(.48 160.998 16.314)" font-family="Yuanti SC" font-size="12" font-weight="bold"><tspan x="154.998" y="20.814">安</tspan></text><text fill="#000" transform="rotate(.48 160.876 30.713)" font-family="Yuanti SC" font-size="12" font-weight="bold"><tspan x="154.876" y="35.213">迪</tspan></text><text fill="#000" transform="rotate(.48 160.633 59.512)" font-family="Yuanti SC" font-size="12" font-weight="bold"><tspan x="154.633" y="64.012">沃</tspan></text><text fill="#000" transform="rotate(.48 160.512 73.912)" font-family="Yuanti SC" font-size="12" font-weight="bold"><tspan x="154.512" y="78.412">霍</tspan></text><text fill="#000" transform="rotate(.48 160.39 88.31)" font-family="Yuanti SC" font-size="12" font-weight="bold"><tspan x="154.39" y="92.811">尔</tspan></text><text fill="#000" transform="rotate(.48 160.27 102.71)" font-family="Yuanti SC" font-size="12" font-weight="bold"><tspan x="154.269" y="107.211">的</tspan></text><text fill="#000" transform="rotate(.48 160.147 117.11)" font-family="Yuanti SC" font-size="12" font-weight="bold"><tspan x="154.147" y="121.61">哲</tspan></text><text fill="#000" transform="rotate(.48 160.026 131.51)" font-family="Yuanti SC" font-size="12" font-weight="bold"><tspan x="154.025" y="136.01">学</tspan></text><text fill="#000" font-family="Yuanti SC" font-size="12" font-weight="bold"><tspan x="51.5" y="66.325">巫</tspan></text><text fill="#000" font-family="Yuanti SC" font-size="12" font-weight="bold"><tspan x="51.5" y="80.725">魔</tspan></text><text fill="#000" font-family="Yuanti SC" font-size="12" font-weight="bold"><tspan x="51.5" y="95.125">师</tspan></text><circle fill="#000" cx="160.666" cy="45.229" r="1.625"/></g></svg>